<svg xmlns="http://www.w3.org/2000/svg" viewBox="0 0 32 32" fill="none">
  <rect width="32" height="32" rx="8" fill="#EA580C"/>
  <path d="M8.5 12.5C8.5 11.1 9.6 10 11 10C12.4 10 13.5 11.1 13.5 12.5C13.5 13.9 12.4 15 11 15C9.6 15 8.5 13.9 8.5 12.5Z" fill="white"/>
  <path d="M18.5 12.5C18.5 11.1 19.6 10 21 10C22.4 10 23.5 11.1 23.5 12.5C23.5 13.9 22.4 15 21 15C19.6 15 18.5 13.9 18.5 12.5Z" fill="white"/>
  <path d="M7 18C7 18 8 14.5 11.5 15.5C13 16 13.5 17.5 16 17.5C18.5 17.5 19 16 20.5 15.5C24 14.5 25 18 25 18C25 18 25.5 22 22 23.5C20 24.5 18 24 16 24C14 24 12 24.5 10 23.5C6.5 22 7 18 7 18Z" fill="white"/>
</svg>
